<mxfile host="app.diagrams.net" modified="2024-03-24T18:15:59.236Z" agent="Mozilla/5.0 (Windows NT 10.0; Win64; x64; rv:124.0) Gecko/20100101 Firefox/124.0" etag="p5Jp5aVEI2IW1DpzY7_9" version="24.1.0" type="device">
  <diagram name="Страница — 1" id="7Uw-dCmtmqph_xWcafJa">
    <mxGraphModel dx="2514" dy="864" grid="1" gridSize="10" guides="1" tooltips="1" connect="1" arrows="1" fold="1" page="1" pageScale="1" pageWidth="827" pageHeight="1169" math="0" shadow="0">
      <root>
        <mxCell id="0" />
        <mxCell id="1" parent="0" />
        <mxCell id="WEGuKnOYoMUn4FzqH5F0-13" value="Room" style="shape=table;startSize=30;container=1;collapsible=0;childLayout=tableLayout;fixedRows=1;rowLines=0;fontStyle=0;strokeColor=default;fontSize=16;" parent="1" vertex="1">
          <mxGeometry x="330" y="600" width="73" height="90" as="geometry" />
        </mxCell>
        <mxCell id="WEGuKnOYoMUn4FzqH5F0-17" value="" style="shape=tableRow;horizontal=0;startSize=0;swimlaneHead=0;swimlaneBody=0;top=0;left=0;bottom=0;right=0;collapsible=0;dropTarget=0;fillColor=none;points=[[0,0.5],[1,0.5]];portConstraint=eastwest;strokeColor=inherit;fontSize=16;" parent="WEGuKnOYoMUn4FzqH5F0-13" vertex="1">
          <mxGeometry y="30" width="73" height="30" as="geometry" />
        </mxCell>
        <mxCell id="WEGuKnOYoMUn4FzqH5F0-19" value="InDoor" style="shape=partialRectangle;html=1;whiteSpace=wrap;connectable=0;fillColor=none;top=0;left=0;bottom=0;right=0;align=left;spacingLeft=6;overflow=hidden;strokeColor=inherit;fontSize=16;" parent="WEGuKnOYoMUn4FzqH5F0-17" vertex="1">
          <mxGeometry width="73" height="30" as="geometry">
            <mxRectangle width="73" height="30" as="alternateBounds" />
          </mxGeometry>
        </mxCell>
        <mxCell id="WEGuKnOYoMUn4FzqH5F0-65" style="shape=tableRow;horizontal=0;startSize=0;swimlaneHead=0;swimlaneBody=0;top=0;left=0;bottom=0;right=0;collapsible=0;dropTarget=0;fillColor=none;points=[[0,0.5],[1,0.5]];portConstraint=eastwest;strokeColor=inherit;fontSize=16;" parent="WEGuKnOYoMUn4FzqH5F0-13" vertex="1">
          <mxGeometry y="60" width="73" height="30" as="geometry" />
        </mxCell>
        <mxCell id="WEGuKnOYoMUn4FzqH5F0-66" value="OutDoor" style="shape=partialRectangle;html=1;whiteSpace=wrap;connectable=0;fillColor=none;top=0;left=0;bottom=0;right=0;align=left;spacingLeft=6;overflow=hidden;strokeColor=inherit;fontSize=16;" parent="WEGuKnOYoMUn4FzqH5F0-65" vertex="1">
          <mxGeometry width="73" height="30" as="geometry">
            <mxRectangle width="73" height="30" as="alternateBounds" />
          </mxGeometry>
        </mxCell>
        <mxCell id="WEGuKnOYoMUn4FzqH5F0-34" value="Platform" style="shape=table;startSize=30;container=1;collapsible=0;childLayout=tableLayout;fixedRows=1;rowLines=0;fontStyle=0;strokeColor=default;fontSize=16;" parent="1" vertex="1">
          <mxGeometry x="-580" y="100" width="83" height="60" as="geometry" />
        </mxCell>
        <mxCell id="WEGuKnOYoMUn4FzqH5F0-41" value="" style="shape=tableRow;horizontal=0;startSize=0;swimlaneHead=0;swimlaneBody=0;top=0;left=0;bottom=0;right=0;collapsible=0;dropTarget=0;fillColor=none;points=[[0,0.5],[1,0.5]];portConstraint=eastwest;strokeColor=inherit;fontSize=16;" parent="WEGuKnOYoMUn4FzqH5F0-34" vertex="1">
          <mxGeometry y="30" width="83" height="30" as="geometry" />
        </mxCell>
        <mxCell id="WEGuKnOYoMUn4FzqH5F0-43" value="" style="shape=partialRectangle;html=1;whiteSpace=wrap;connectable=0;fillColor=none;top=0;left=0;bottom=0;right=0;align=left;spacingLeft=6;overflow=hidden;strokeColor=inherit;fontSize=16;" parent="WEGuKnOYoMUn4FzqH5F0-41" vertex="1">
          <mxGeometry width="83" height="30" as="geometry">
            <mxRectangle width="83" height="30" as="alternateBounds" />
          </mxGeometry>
        </mxCell>
        <mxCell id="xUy-coRWp40PhXiS_MEN-17" style="edgeStyle=none;curved=1;rounded=0;orthogonalLoop=1;jettySize=auto;html=1;entryX=1;entryY=0.5;entryDx=0;entryDy=0;fontSize=12;startSize=8;endSize=8;" parent="WEGuKnOYoMUn4FzqH5F0-34" source="WEGuKnOYoMUn4FzqH5F0-41" target="WEGuKnOYoMUn4FzqH5F0-41" edge="1">
          <mxGeometry relative="1" as="geometry" />
        </mxCell>
        <mxCell id="WEGuKnOYoMUn4FzqH5F0-82" style="edgeStyle=orthogonalEdgeStyle;rounded=0;orthogonalLoop=1;jettySize=auto;html=1;exitX=1;exitY=0.25;exitDx=0;exitDy=0;entryX=1;entryY=0.25;entryDx=0;entryDy=0;" parent="1" edge="1">
          <mxGeometry relative="1" as="geometry">
            <mxPoint x="730" y="225" as="sourcePoint" />
          </mxGeometry>
        </mxCell>
        <mxCell id="xUy-coRWp40PhXiS_MEN-20" value="Enemy" style="shape=table;startSize=30;container=1;collapsible=0;childLayout=tableLayout;fixedRows=1;rowLines=0;fontStyle=0;strokeColor=default;fontSize=16;" parent="1" vertex="1">
          <mxGeometry x="-90" y="85" width="140" height="60" as="geometry" />
        </mxCell>
        <mxCell id="xUy-coRWp40PhXiS_MEN-24" value="" style="shape=tableRow;horizontal=0;startSize=0;swimlaneHead=0;swimlaneBody=0;top=0;left=0;bottom=0;right=0;collapsible=0;dropTarget=0;fillColor=none;points=[[0,0.5],[1,0.5]];portConstraint=eastwest;strokeColor=inherit;fontSize=16;" parent="xUy-coRWp40PhXiS_MEN-20" vertex="1">
          <mxGeometry y="30" width="140" height="30" as="geometry" />
        </mxCell>
        <mxCell id="xUy-coRWp40PhXiS_MEN-26" value="Resistance" style="shape=partialRectangle;html=1;whiteSpace=wrap;connectable=0;fillColor=none;top=0;left=0;bottom=0;right=0;align=left;spacingLeft=6;overflow=hidden;strokeColor=inherit;fontSize=16;" parent="xUy-coRWp40PhXiS_MEN-24" vertex="1">
          <mxGeometry width="140" height="30" as="geometry">
            <mxRectangle width="140" height="30" as="alternateBounds" />
          </mxGeometry>
        </mxCell>
        <mxCell id="xUy-coRWp40PhXiS_MEN-36" value="Gun" style="shape=table;startSize=30;container=1;collapsible=0;childLayout=tableLayout;fixedRows=1;rowLines=0;fontStyle=0;strokeColor=default;fontSize=16;" parent="1" vertex="1">
          <mxGeometry x="263" y="130" width="140" height="120" as="geometry" />
        </mxCell>
        <mxCell id="xUy-coRWp40PhXiS_MEN-37" value="" style="shape=tableRow;horizontal=0;startSize=0;swimlaneHead=0;swimlaneBody=0;top=0;left=0;bottom=0;right=0;collapsible=0;dropTarget=0;fillColor=none;points=[[0,0.5],[1,0.5]];portConstraint=eastwest;strokeColor=inherit;fontSize=16;" parent="xUy-coRWp40PhXiS_MEN-36" vertex="1">
          <mxGeometry y="30" width="140" height="30" as="geometry" />
        </mxCell>
        <mxCell id="xUy-coRWp40PhXiS_MEN-39" value="AmountOfEnergy" style="shape=partialRectangle;html=1;whiteSpace=wrap;connectable=0;fillColor=none;top=0;left=0;bottom=0;right=0;align=left;spacingLeft=6;overflow=hidden;strokeColor=inherit;fontSize=16;" parent="xUy-coRWp40PhXiS_MEN-37" vertex="1">
          <mxGeometry width="140" height="30" as="geometry">
            <mxRectangle width="140" height="30" as="alternateBounds" />
          </mxGeometry>
        </mxCell>
        <mxCell id="EaseoKQZitVmt0d7xpuM-25" style="shape=tableRow;horizontal=0;startSize=0;swimlaneHead=0;swimlaneBody=0;top=0;left=0;bottom=0;right=0;collapsible=0;dropTarget=0;fillColor=none;points=[[0,0.5],[1,0.5]];portConstraint=eastwest;strokeColor=inherit;fontSize=16;" vertex="1" parent="xUy-coRWp40PhXiS_MEN-36">
          <mxGeometry y="60" width="140" height="30" as="geometry" />
        </mxCell>
        <mxCell id="EaseoKQZitVmt0d7xpuM-26" value="Skeletal Mesh" style="shape=partialRectangle;html=1;whiteSpace=wrap;connectable=0;fillColor=none;top=0;left=0;bottom=0;right=0;align=left;spacingLeft=6;overflow=hidden;strokeColor=inherit;fontSize=16;" vertex="1" parent="EaseoKQZitVmt0d7xpuM-25">
          <mxGeometry width="140" height="30" as="geometry">
            <mxRectangle width="140" height="30" as="alternateBounds" />
          </mxGeometry>
        </mxCell>
        <mxCell id="xUy-coRWp40PhXiS_MEN-47" style="shape=tableRow;horizontal=0;startSize=0;swimlaneHead=0;swimlaneBody=0;top=0;left=0;bottom=0;right=0;collapsible=0;dropTarget=0;fillColor=none;points=[[0,0.5],[1,0.5]];portConstraint=eastwest;strokeColor=inherit;fontSize=16;" parent="xUy-coRWp40PhXiS_MEN-36" vertex="1">
          <mxGeometry y="90" width="140" height="30" as="geometry" />
        </mxCell>
        <mxCell id="xUy-coRWp40PhXiS_MEN-48" value="Bullet" style="shape=partialRectangle;html=1;whiteSpace=wrap;connectable=0;fillColor=none;top=0;left=0;bottom=0;right=0;align=left;spacingLeft=6;overflow=hidden;strokeColor=inherit;fontSize=16;" parent="xUy-coRWp40PhXiS_MEN-47" vertex="1">
          <mxGeometry width="140" height="30" as="geometry">
            <mxRectangle width="140" height="30" as="alternateBounds" />
          </mxGeometry>
        </mxCell>
        <mxCell id="xUy-coRWp40PhXiS_MEN-46" value="" style="edgeStyle=orthogonalEdgeStyle;fontSize=12;html=1;endArrow=ERzeroToMany;startArrow=ERmandOne;rounded=0;startSize=8;endSize=8;entryX=1;entryY=0.25;entryDx=0;entryDy=0;exitX=0;exitY=0.5;exitDx=0;exitDy=0;" parent="1" source="xUy-coRWp40PhXiS_MEN-27" target="xUy-coRWp40PhXiS_MEN-36" edge="1">
          <mxGeometry width="100" height="100" relative="1" as="geometry">
            <mxPoint x="237" y="660" as="sourcePoint" />
            <mxPoint x="337" y="560" as="targetPoint" />
            <Array as="points">
              <mxPoint x="307" y="415" />
              <mxPoint x="307" y="333" />
            </Array>
          </mxGeometry>
        </mxCell>
        <mxCell id="xUy-coRWp40PhXiS_MEN-49" value="Bullet" style="shape=table;startSize=30;container=1;collapsible=0;childLayout=tableLayout;fixedRows=1;rowLines=0;fontStyle=0;strokeColor=default;fontSize=16;" parent="1" vertex="1">
          <mxGeometry x="103" y="85" width="83" height="60" as="geometry" />
        </mxCell>
        <mxCell id="xUy-coRWp40PhXiS_MEN-53" value="" style="shape=tableRow;horizontal=0;startSize=0;swimlaneHead=0;swimlaneBody=0;top=0;left=0;bottom=0;right=0;collapsible=0;dropTarget=0;fillColor=none;points=[[0,0.5],[1,0.5]];portConstraint=eastwest;strokeColor=inherit;fontSize=16;" parent="xUy-coRWp40PhXiS_MEN-49" vertex="1">
          <mxGeometry y="30" width="83" height="30" as="geometry" />
        </mxCell>
        <mxCell id="xUy-coRWp40PhXiS_MEN-55" value="" style="shape=partialRectangle;html=1;whiteSpace=wrap;connectable=0;fillColor=none;top=0;left=0;bottom=0;right=0;align=left;spacingLeft=6;overflow=hidden;strokeColor=inherit;fontSize=16;" parent="xUy-coRWp40PhXiS_MEN-53" vertex="1">
          <mxGeometry width="83" height="30" as="geometry">
            <mxRectangle width="83" height="30" as="alternateBounds" />
          </mxGeometry>
        </mxCell>
        <mxCell id="xUy-coRWp40PhXiS_MEN-59" value="" style="edgeStyle=orthogonalEdgeStyle;fontSize=12;html=1;endArrow=ERzeroToMany;startArrow=ERmandOne;rounded=0;startSize=8;endSize=8;entryX=1;entryY=0.25;entryDx=0;entryDy=0;exitX=0;exitY=0.5;exitDx=0;exitDy=0;" parent="1" source="xUy-coRWp40PhXiS_MEN-47" target="xUy-coRWp40PhXiS_MEN-49" edge="1">
          <mxGeometry width="100" height="100" relative="1" as="geometry">
            <mxPoint x="363" y="420" as="sourcePoint" />
            <mxPoint x="463" y="320" as="targetPoint" />
          </mxGeometry>
        </mxCell>
        <mxCell id="xUy-coRWp40PhXiS_MEN-60" value="Player" style="shape=table;startSize=30;container=1;collapsible=0;childLayout=tableLayout;fixedRows=1;rowLines=0;fontStyle=0;strokeColor=default;fontSize=16;" parent="1" vertex="1">
          <mxGeometry x="483" y="60" width="140" height="150" as="geometry" />
        </mxCell>
        <mxCell id="xUy-coRWp40PhXiS_MEN-61" value="" style="shape=tableRow;horizontal=0;startSize=0;swimlaneHead=0;swimlaneBody=0;top=0;left=0;bottom=0;right=0;collapsible=0;dropTarget=0;fillColor=none;points=[[0,0.5],[1,0.5]];portConstraint=eastwest;strokeColor=inherit;fontSize=16;" parent="xUy-coRWp40PhXiS_MEN-60" vertex="1">
          <mxGeometry y="30" width="140" height="30" as="geometry" />
        </mxCell>
        <mxCell id="xUy-coRWp40PhXiS_MEN-63" value="Shield" style="shape=partialRectangle;html=1;whiteSpace=wrap;connectable=0;fillColor=none;top=0;left=0;bottom=0;right=0;align=left;spacingLeft=6;overflow=hidden;strokeColor=inherit;fontSize=16;" parent="xUy-coRWp40PhXiS_MEN-61" vertex="1">
          <mxGeometry width="140" height="30" as="geometry">
            <mxRectangle width="140" height="30" as="alternateBounds" />
          </mxGeometry>
        </mxCell>
        <mxCell id="xUy-coRWp40PhXiS_MEN-64" value="" style="shape=tableRow;horizontal=0;startSize=0;swimlaneHead=0;swimlaneBody=0;top=0;left=0;bottom=0;right=0;collapsible=0;dropTarget=0;fillColor=none;points=[[0,0.5],[1,0.5]];portConstraint=eastwest;strokeColor=inherit;fontSize=16;" parent="xUy-coRWp40PhXiS_MEN-60" vertex="1">
          <mxGeometry y="60" width="140" height="30" as="geometry" />
        </mxCell>
        <mxCell id="xUy-coRWp40PhXiS_MEN-66" value="Enetgy" style="shape=partialRectangle;html=1;whiteSpace=wrap;connectable=0;fillColor=none;top=0;left=0;bottom=0;right=0;align=left;spacingLeft=6;overflow=hidden;strokeColor=inherit;fontSize=16;" parent="xUy-coRWp40PhXiS_MEN-64" vertex="1">
          <mxGeometry width="140" height="30" as="geometry">
            <mxRectangle width="140" height="30" as="alternateBounds" />
          </mxGeometry>
        </mxCell>
        <mxCell id="xUy-coRWp40PhXiS_MEN-67" value="" style="shape=tableRow;horizontal=0;startSize=0;swimlaneHead=0;swimlaneBody=0;top=0;left=0;bottom=0;right=0;collapsible=0;dropTarget=0;fillColor=none;points=[[0,0.5],[1,0.5]];portConstraint=eastwest;strokeColor=inherit;fontSize=16;" parent="xUy-coRWp40PhXiS_MEN-60" vertex="1">
          <mxGeometry y="90" width="140" height="30" as="geometry" />
        </mxCell>
        <mxCell id="xUy-coRWp40PhXiS_MEN-69" value="Ability" style="shape=partialRectangle;html=1;whiteSpace=wrap;connectable=0;fillColor=none;top=0;left=0;bottom=0;right=0;align=left;spacingLeft=6;overflow=hidden;strokeColor=inherit;fontSize=16;" parent="xUy-coRWp40PhXiS_MEN-67" vertex="1">
          <mxGeometry width="140" height="30" as="geometry">
            <mxRectangle width="140" height="30" as="alternateBounds" />
          </mxGeometry>
        </mxCell>
        <mxCell id="xUy-coRWp40PhXiS_MEN-70" style="shape=tableRow;horizontal=0;startSize=0;swimlaneHead=0;swimlaneBody=0;top=0;left=0;bottom=0;right=0;collapsible=0;dropTarget=0;fillColor=none;points=[[0,0.5],[1,0.5]];portConstraint=eastwest;strokeColor=inherit;fontSize=16;" parent="xUy-coRWp40PhXiS_MEN-60" vertex="1">
          <mxGeometry y="120" width="140" height="30" as="geometry" />
        </mxCell>
        <mxCell id="xUy-coRWp40PhXiS_MEN-71" value="Bonus" style="shape=partialRectangle;html=1;whiteSpace=wrap;connectable=0;fillColor=none;top=0;left=0;bottom=0;right=0;align=left;spacingLeft=6;overflow=hidden;strokeColor=inherit;fontSize=16;" parent="xUy-coRWp40PhXiS_MEN-70" vertex="1">
          <mxGeometry width="140" height="30" as="geometry">
            <mxRectangle width="140" height="30" as="alternateBounds" />
          </mxGeometry>
        </mxCell>
        <mxCell id="xUy-coRWp40PhXiS_MEN-74" value="Ability" style="shape=table;startSize=30;container=1;collapsible=0;childLayout=tableLayout;fixedRows=1;rowLines=0;fontStyle=0;strokeColor=default;fontSize=16;" parent="1" vertex="1">
          <mxGeometry x="799" y="60" width="103" height="60" as="geometry" />
        </mxCell>
        <mxCell id="xUy-coRWp40PhXiS_MEN-75" value="" style="shape=tableRow;horizontal=0;startSize=0;swimlaneHead=0;swimlaneBody=0;top=0;left=0;bottom=0;right=0;collapsible=0;dropTarget=0;fillColor=none;points=[[0,0.5],[1,0.5]];portConstraint=eastwest;strokeColor=inherit;fontSize=16;" parent="xUy-coRWp40PhXiS_MEN-74" vertex="1">
          <mxGeometry y="30" width="103" height="30" as="geometry" />
        </mxCell>
        <mxCell id="xUy-coRWp40PhXiS_MEN-77" value="" style="shape=partialRectangle;html=1;whiteSpace=wrap;connectable=0;fillColor=none;top=0;left=0;bottom=0;right=0;align=left;spacingLeft=6;overflow=hidden;strokeColor=inherit;fontSize=16;" parent="xUy-coRWp40PhXiS_MEN-75" vertex="1">
          <mxGeometry width="103" height="30" as="geometry">
            <mxRectangle width="103" height="30" as="alternateBounds" />
          </mxGeometry>
        </mxCell>
        <mxCell id="xUy-coRWp40PhXiS_MEN-85" value="Bonus" style="shape=table;startSize=30;container=1;collapsible=0;childLayout=tableLayout;fixedRows=1;rowLines=0;fontStyle=0;strokeColor=default;fontSize=16;" parent="1" vertex="1">
          <mxGeometry x="673" y="60" width="99" height="60" as="geometry" />
        </mxCell>
        <mxCell id="xUy-coRWp40PhXiS_MEN-86" value="" style="shape=tableRow;horizontal=0;startSize=0;swimlaneHead=0;swimlaneBody=0;top=0;left=0;bottom=0;right=0;collapsible=0;dropTarget=0;fillColor=none;points=[[0,0.5],[1,0.5]];portConstraint=eastwest;strokeColor=inherit;fontSize=16;" parent="xUy-coRWp40PhXiS_MEN-85" vertex="1">
          <mxGeometry y="30" width="99" height="30" as="geometry" />
        </mxCell>
        <mxCell id="xUy-coRWp40PhXiS_MEN-88" value="" style="shape=partialRectangle;html=1;whiteSpace=wrap;connectable=0;fillColor=none;top=0;left=0;bottom=0;right=0;align=left;spacingLeft=6;overflow=hidden;strokeColor=inherit;fontSize=16;" parent="xUy-coRWp40PhXiS_MEN-86" vertex="1">
          <mxGeometry width="99" height="30" as="geometry">
            <mxRectangle width="99" height="30" as="alternateBounds" />
          </mxGeometry>
        </mxCell>
        <mxCell id="xUy-coRWp40PhXiS_MEN-96" value="" style="edgeStyle=orthogonalEdgeStyle;fontSize=12;html=1;endArrow=ERzeroToMany;startArrow=ERmandOne;rounded=0;startSize=8;endSize=8;exitX=1;exitY=0.5;exitDx=0;exitDy=0;entryX=0;entryY=0.25;entryDx=0;entryDy=0;" parent="1" source="xUy-coRWp40PhXiS_MEN-70" target="xUy-coRWp40PhXiS_MEN-85" edge="1">
          <mxGeometry width="100" height="100" relative="1" as="geometry">
            <mxPoint x="713" y="260" as="sourcePoint" />
            <mxPoint x="813" y="160" as="targetPoint" />
          </mxGeometry>
        </mxCell>
        <mxCell id="xUy-coRWp40PhXiS_MEN-97" value="" style="edgeStyle=orthogonalEdgeStyle;fontSize=12;html=1;endArrow=ERzeroToMany;startArrow=ERmandOne;rounded=0;startSize=8;endSize=8;" parent="1" source="xUy-coRWp40PhXiS_MEN-67" target="xUy-coRWp40PhXiS_MEN-74" edge="1">
          <mxGeometry width="100" height="100" relative="1" as="geometry">
            <mxPoint x="623" y="160" as="sourcePoint" />
            <mxPoint x="799" y="75" as="targetPoint" />
            <Array as="points">
              <mxPoint x="643" y="160" />
              <mxPoint x="643" y="50" />
              <mxPoint x="776" y="50" />
              <mxPoint x="776" y="75" />
            </Array>
          </mxGeometry>
        </mxCell>
        <mxCell id="xUy-coRWp40PhXiS_MEN-98" value="" style="edgeStyle=orthogonalEdgeStyle;fontSize=12;html=1;endArrow=ERzeroToMany;startArrow=ERmandOne;rounded=0;startSize=8;endSize=8;entryX=1;entryY=0.25;entryDx=0;entryDy=0;exitX=0;exitY=0.5;exitDx=0;exitDy=0;" parent="1" source="xUy-coRWp40PhXiS_MEN-72" target="xUy-coRWp40PhXiS_MEN-36" edge="1">
          <mxGeometry width="100" height="100" relative="1" as="geometry">
            <mxPoint x="407" y="665" as="sourcePoint" />
            <mxPoint x="277" y="540" as="targetPoint" />
            <Array as="points">
              <mxPoint x="297" y="655" />
              <mxPoint x="297" y="333" />
            </Array>
          </mxGeometry>
        </mxCell>
        <mxCell id="EaseoKQZitVmt0d7xpuM-11" value="BaseCharacter" style="shape=table;startSize=30;container=1;collapsible=0;childLayout=tableLayout;fixedRows=1;rowLines=0;fontStyle=0;strokeColor=default;fontSize=16;" vertex="1" parent="1">
          <mxGeometry x="263" y="10" width="140" height="90" as="geometry" />
        </mxCell>
        <mxCell id="EaseoKQZitVmt0d7xpuM-12" value="" style="shape=tableRow;horizontal=0;startSize=0;swimlaneHead=0;swimlaneBody=0;top=0;left=0;bottom=0;right=0;collapsible=0;dropTarget=0;fillColor=none;points=[[0,0.5],[1,0.5]];portConstraint=eastwest;strokeColor=inherit;fontSize=16;" vertex="1" parent="EaseoKQZitVmt0d7xpuM-11">
          <mxGeometry y="30" width="140" height="30" as="geometry" />
        </mxCell>
        <mxCell id="EaseoKQZitVmt0d7xpuM-14" value="HP" style="shape=partialRectangle;html=1;whiteSpace=wrap;connectable=0;fillColor=none;top=0;left=0;bottom=0;right=0;align=left;spacingLeft=6;overflow=hidden;strokeColor=inherit;fontSize=16;" vertex="1" parent="EaseoKQZitVmt0d7xpuM-12">
          <mxGeometry width="140" height="30" as="geometry">
            <mxRectangle width="140" height="30" as="alternateBounds" />
          </mxGeometry>
        </mxCell>
        <mxCell id="EaseoKQZitVmt0d7xpuM-15" value="" style="shape=tableRow;horizontal=0;startSize=0;swimlaneHead=0;swimlaneBody=0;top=0;left=0;bottom=0;right=0;collapsible=0;dropTarget=0;fillColor=none;points=[[0,0.5],[1,0.5]];portConstraint=eastwest;strokeColor=inherit;fontSize=16;" vertex="1" parent="EaseoKQZitVmt0d7xpuM-11">
          <mxGeometry y="60" width="140" height="30" as="geometry" />
        </mxCell>
        <mxCell id="EaseoKQZitVmt0d7xpuM-17" value="Gun" style="shape=partialRectangle;html=1;whiteSpace=wrap;connectable=0;fillColor=none;top=0;left=0;bottom=0;right=0;align=left;spacingLeft=6;overflow=hidden;strokeColor=inherit;fontSize=16;" vertex="1" parent="EaseoKQZitVmt0d7xpuM-15">
          <mxGeometry width="140" height="30" as="geometry">
            <mxRectangle width="140" height="30" as="alternateBounds" />
          </mxGeometry>
        </mxCell>
        <mxCell id="EaseoKQZitVmt0d7xpuM-21" value="" style="edgeStyle=orthogonalEdgeStyle;elbow=horizontal;endArrow=classic;html=1;rounded=0;endSize=8;startSize=8;entryX=0.5;entryY=0;entryDx=0;entryDy=0;exitX=-0.036;exitY=0.122;exitDx=0;exitDy=0;exitPerimeter=0;" edge="1" parent="1" source="EaseoKQZitVmt0d7xpuM-11" target="xUy-coRWp40PhXiS_MEN-20">
          <mxGeometry width="50" height="50" relative="1" as="geometry">
            <mxPoint x="3" y="80" as="sourcePoint" />
            <mxPoint x="53" y="30" as="targetPoint" />
          </mxGeometry>
        </mxCell>
        <mxCell id="EaseoKQZitVmt0d7xpuM-23" value="" style="edgeStyle=orthogonalEdgeStyle;endArrow=classic;html=1;rounded=0;endSize=8;startSize=8;exitX=1.007;exitY=0.156;exitDx=0;exitDy=0;exitPerimeter=0;entryX=0.5;entryY=0;entryDx=0;entryDy=0;" edge="1" parent="1" source="EaseoKQZitVmt0d7xpuM-11" target="xUy-coRWp40PhXiS_MEN-60">
          <mxGeometry width="50" height="50" relative="1" as="geometry">
            <mxPoint x="313" y="210" as="sourcePoint" />
            <mxPoint x="363" y="160" as="targetPoint" />
          </mxGeometry>
        </mxCell>
        <mxCell id="EaseoKQZitVmt0d7xpuM-24" value="" style="edgeStyle=orthogonalEdgeStyle;fontSize=12;html=1;endArrow=ERzeroToMany;startArrow=ERmandOne;rounded=0;exitX=0;exitY=0.5;exitDx=0;exitDy=0;entryX=-0.003;entryY=0.109;entryDx=0;entryDy=0;entryPerimeter=0;" edge="1" parent="1" source="EaseoKQZitVmt0d7xpuM-15" target="xUy-coRWp40PhXiS_MEN-36">
          <mxGeometry width="100" height="100" relative="1" as="geometry">
            <mxPoint x="203" y="270" as="sourcePoint" />
            <mxPoint x="53" y="60" as="targetPoint" />
            <Array as="points">
              <mxPoint x="243" y="85" />
              <mxPoint x="243" y="143" />
            </Array>
          </mxGeometry>
        </mxCell>
        <mxCell id="EaseoKQZitVmt0d7xpuM-27" value="NoCollision" style="shape=table;startSize=30;container=1;collapsible=0;childLayout=tableLayout;fixedRows=1;rowLines=0;fontStyle=0;strokeColor=default;fontSize=16;" vertex="1" parent="1">
          <mxGeometry x="-449.5" y="30" width="106.5" height="60" as="geometry" />
        </mxCell>
        <mxCell id="EaseoKQZitVmt0d7xpuM-28" value="" style="shape=tableRow;horizontal=0;startSize=0;swimlaneHead=0;swimlaneBody=0;top=0;left=0;bottom=0;right=0;collapsible=0;dropTarget=0;fillColor=none;points=[[0,0.5],[1,0.5]];portConstraint=eastwest;strokeColor=inherit;fontSize=16;" vertex="1" parent="EaseoKQZitVmt0d7xpuM-27">
          <mxGeometry y="30" width="106.5" height="30" as="geometry" />
        </mxCell>
        <mxCell id="EaseoKQZitVmt0d7xpuM-30" value="" style="shape=partialRectangle;html=1;whiteSpace=wrap;connectable=0;fillColor=none;top=0;left=0;bottom=0;right=0;align=left;spacingLeft=6;overflow=hidden;strokeColor=inherit;fontSize=16;" vertex="1" parent="EaseoKQZitVmt0d7xpuM-28">
          <mxGeometry width="107" height="30" as="geometry">
            <mxRectangle width="107" height="30" as="alternateBounds" />
          </mxGeometry>
        </mxCell>
        <mxCell id="EaseoKQZitVmt0d7xpuM-37" value="Collision" style="shape=table;startSize=30;container=1;collapsible=0;childLayout=tableLayout;fixedRows=1;rowLines=0;fontStyle=0;strokeColor=default;fontSize=16;" vertex="1" parent="1">
          <mxGeometry x="-449.5" y="130" width="106.5" height="60" as="geometry" />
        </mxCell>
        <mxCell id="EaseoKQZitVmt0d7xpuM-38" value="" style="shape=tableRow;horizontal=0;startSize=0;swimlaneHead=0;swimlaneBody=0;top=0;left=0;bottom=0;right=0;collapsible=0;dropTarget=0;fillColor=none;points=[[0,0.5],[1,0.5]];portConstraint=eastwest;strokeColor=inherit;fontSize=16;" vertex="1" parent="EaseoKQZitVmt0d7xpuM-37">
          <mxGeometry y="30" width="106.5" height="30" as="geometry" />
        </mxCell>
        <mxCell id="EaseoKQZitVmt0d7xpuM-39" value="" style="shape=partialRectangle;html=1;whiteSpace=wrap;connectable=0;fillColor=none;top=0;left=0;bottom=0;right=0;align=left;spacingLeft=6;overflow=hidden;strokeColor=inherit;fontSize=16;" vertex="1" parent="EaseoKQZitVmt0d7xpuM-38">
          <mxGeometry width="107" height="30" as="geometry">
            <mxRectangle width="107" height="30" as="alternateBounds" />
          </mxGeometry>
        </mxCell>
        <mxCell id="EaseoKQZitVmt0d7xpuM-52" value="StaticPosition" style="shape=table;startSize=30;container=1;collapsible=0;childLayout=tableLayout;fixedRows=1;rowLines=0;fontStyle=0;strokeColor=default;fontSize=16;" vertex="1" parent="1">
          <mxGeometry x="-295.25" y="210" width="106.5" height="60" as="geometry" />
        </mxCell>
        <mxCell id="EaseoKQZitVmt0d7xpuM-53" value="" style="shape=tableRow;horizontal=0;startSize=0;swimlaneHead=0;swimlaneBody=0;top=0;left=0;bottom=0;right=0;collapsible=0;dropTarget=0;fillColor=none;points=[[0,0.5],[1,0.5]];portConstraint=eastwest;strokeColor=inherit;fontSize=16;" vertex="1" parent="EaseoKQZitVmt0d7xpuM-52">
          <mxGeometry y="30" width="106.5" height="30" as="geometry" />
        </mxCell>
        <mxCell id="EaseoKQZitVmt0d7xpuM-54" value="" style="shape=partialRectangle;html=1;whiteSpace=wrap;connectable=0;fillColor=none;top=0;left=0;bottom=0;right=0;align=left;spacingLeft=6;overflow=hidden;strokeColor=inherit;fontSize=16;" vertex="1" parent="EaseoKQZitVmt0d7xpuM-53">
          <mxGeometry width="107" height="30" as="geometry">
            <mxRectangle width="107" height="30" as="alternateBounds" />
          </mxGeometry>
        </mxCell>
        <mxCell id="EaseoKQZitVmt0d7xpuM-55" value="Moving" style="shape=table;startSize=30;container=1;collapsible=0;childLayout=tableLayout;fixedRows=1;rowLines=0;fontStyle=0;strokeColor=default;fontSize=16;" vertex="1" parent="1">
          <mxGeometry x="-295.25" y="600" width="106.5" height="60" as="geometry" />
        </mxCell>
        <mxCell id="EaseoKQZitVmt0d7xpuM-56" value="" style="shape=tableRow;horizontal=0;startSize=0;swimlaneHead=0;swimlaneBody=0;top=0;left=0;bottom=0;right=0;collapsible=0;dropTarget=0;fillColor=none;points=[[0,0.5],[1,0.5]];portConstraint=eastwest;strokeColor=inherit;fontSize=16;" vertex="1" parent="EaseoKQZitVmt0d7xpuM-55">
          <mxGeometry y="30" width="106.5" height="30" as="geometry" />
        </mxCell>
        <mxCell id="EaseoKQZitVmt0d7xpuM-57" value="SpeedVector" style="shape=partialRectangle;html=1;whiteSpace=wrap;connectable=0;fillColor=none;top=0;left=0;bottom=0;right=0;align=left;spacingLeft=6;overflow=hidden;strokeColor=inherit;fontSize=16;" vertex="1" parent="EaseoKQZitVmt0d7xpuM-56">
          <mxGeometry width="107" height="30" as="geometry">
            <mxRectangle width="107" height="30" as="alternateBounds" />
          </mxGeometry>
        </mxCell>
        <mxCell id="EaseoKQZitVmt0d7xpuM-58" value="Movable" style="shape=table;startSize=30;container=1;collapsible=0;childLayout=tableLayout;fixedRows=1;rowLines=0;fontStyle=0;strokeColor=default;fontSize=16;" vertex="1" parent="1">
          <mxGeometry x="-295.25" y="680" width="106.5" height="60" as="geometry" />
        </mxCell>
        <mxCell id="EaseoKQZitVmt0d7xpuM-59" value="" style="shape=tableRow;horizontal=0;startSize=0;swimlaneHead=0;swimlaneBody=0;top=0;left=0;bottom=0;right=0;collapsible=0;dropTarget=0;fillColor=none;points=[[0,0.5],[1,0.5]];portConstraint=eastwest;strokeColor=inherit;fontSize=16;" vertex="1" parent="EaseoKQZitVmt0d7xpuM-58">
          <mxGeometry y="30" width="106.5" height="30" as="geometry" />
        </mxCell>
        <mxCell id="EaseoKQZitVmt0d7xpuM-60" value="Mass" style="shape=partialRectangle;html=1;whiteSpace=wrap;connectable=0;fillColor=none;top=0;left=0;bottom=0;right=0;align=left;spacingLeft=6;overflow=hidden;strokeColor=inherit;fontSize=16;" vertex="1" parent="EaseoKQZitVmt0d7xpuM-59">
          <mxGeometry width="107" height="30" as="geometry">
            <mxRectangle width="107" height="30" as="alternateBounds" />
          </mxGeometry>
        </mxCell>
        <mxCell id="EaseoKQZitVmt0d7xpuM-61" value="" style="edgeStyle=elbowEdgeStyle;elbow=horizontal;endArrow=classic;html=1;curved=0;rounded=0;endSize=8;startSize=8;exitX=0;exitY=0.25;exitDx=0;exitDy=0;entryX=0;entryY=0.25;entryDx=0;entryDy=0;" edge="1" parent="1" source="EaseoKQZitVmt0d7xpuM-37" target="EaseoKQZitVmt0d7xpuM-52">
          <mxGeometry width="50" height="50" relative="1" as="geometry">
            <mxPoint x="-463.5" y="290" as="sourcePoint" />
            <mxPoint x="-383.5" y="220" as="targetPoint" />
            <Array as="points">
              <mxPoint x="-490" y="190" />
            </Array>
          </mxGeometry>
        </mxCell>
        <mxCell id="EaseoKQZitVmt0d7xpuM-62" value="" style="edgeStyle=elbowEdgeStyle;elbow=horizontal;endArrow=classic;html=1;curved=0;rounded=0;endSize=8;startSize=8;exitX=0;exitY=0.25;exitDx=0;exitDy=0;entryX=0;entryY=0.25;entryDx=0;entryDy=0;" edge="1" parent="1" source="EaseoKQZitVmt0d7xpuM-37" target="EaseoKQZitVmt0d7xpuM-55">
          <mxGeometry width="50" height="50" relative="1" as="geometry">
            <mxPoint x="-483.5" y="320" as="sourcePoint" />
            <mxPoint x="-433.5" y="270" as="targetPoint" />
            <Array as="points">
              <mxPoint x="-490" y="220" />
            </Array>
          </mxGeometry>
        </mxCell>
        <mxCell id="EaseoKQZitVmt0d7xpuM-63" value="" style="edgeStyle=elbowEdgeStyle;elbow=horizontal;endArrow=classic;html=1;curved=0;rounded=0;endSize=8;startSize=8;exitX=0;exitY=0.25;exitDx=0;exitDy=0;entryX=0;entryY=0.25;entryDx=0;entryDy=0;" edge="1" parent="1" source="EaseoKQZitVmt0d7xpuM-37" target="EaseoKQZitVmt0d7xpuM-58">
          <mxGeometry width="50" height="50" relative="1" as="geometry">
            <mxPoint x="-433.5" y="310" as="sourcePoint" />
            <mxPoint x="-383.5" y="260" as="targetPoint" />
            <Array as="points">
              <mxPoint x="-490" y="270" />
            </Array>
          </mxGeometry>
        </mxCell>
        <mxCell id="EaseoKQZitVmt0d7xpuM-66" value="StaticPositionN" style="shape=table;startSize=30;container=1;collapsible=0;childLayout=tableLayout;fixedRows=1;rowLines=0;fontStyle=0;strokeColor=default;fontSize=16;" vertex="1" parent="1">
          <mxGeometry x="-310" y="30" width="121.25" height="60" as="geometry" />
        </mxCell>
        <mxCell id="EaseoKQZitVmt0d7xpuM-67" value="" style="shape=tableRow;horizontal=0;startSize=0;swimlaneHead=0;swimlaneBody=0;top=0;left=0;bottom=0;right=0;collapsible=0;dropTarget=0;fillColor=none;points=[[0,0.5],[1,0.5]];portConstraint=eastwest;strokeColor=inherit;fontSize=16;" vertex="1" parent="EaseoKQZitVmt0d7xpuM-66">
          <mxGeometry y="30" width="121.25" height="30" as="geometry" />
        </mxCell>
        <mxCell id="EaseoKQZitVmt0d7xpuM-68" value="" style="shape=partialRectangle;html=1;whiteSpace=wrap;connectable=0;fillColor=none;top=0;left=0;bottom=0;right=0;align=left;spacingLeft=6;overflow=hidden;strokeColor=inherit;fontSize=16;" vertex="1" parent="EaseoKQZitVmt0d7xpuM-67">
          <mxGeometry width="121" height="30" as="geometry">
            <mxRectangle width="121" height="30" as="alternateBounds" />
          </mxGeometry>
        </mxCell>
        <mxCell id="EaseoKQZitVmt0d7xpuM-69" value="MovingN" style="shape=table;startSize=30;container=1;collapsible=0;childLayout=tableLayout;fixedRows=1;rowLines=0;fontStyle=0;strokeColor=default;fontSize=16;" vertex="1" parent="1">
          <mxGeometry x="-295.25" y="110" width="106.5" height="60" as="geometry" />
        </mxCell>
        <mxCell id="EaseoKQZitVmt0d7xpuM-70" value="" style="shape=tableRow;horizontal=0;startSize=0;swimlaneHead=0;swimlaneBody=0;top=0;left=0;bottom=0;right=0;collapsible=0;dropTarget=0;fillColor=none;points=[[0,0.5],[1,0.5]];portConstraint=eastwest;strokeColor=inherit;fontSize=16;" vertex="1" parent="EaseoKQZitVmt0d7xpuM-69">
          <mxGeometry y="30" width="106.5" height="30" as="geometry" />
        </mxCell>
        <mxCell id="EaseoKQZitVmt0d7xpuM-71" value="SpeedVector" style="shape=partialRectangle;html=1;whiteSpace=wrap;connectable=0;fillColor=none;top=0;left=0;bottom=0;right=0;align=left;spacingLeft=6;overflow=hidden;strokeColor=inherit;fontSize=16;" vertex="1" parent="EaseoKQZitVmt0d7xpuM-70">
          <mxGeometry width="107" height="30" as="geometry">
            <mxRectangle width="107" height="30" as="alternateBounds" />
          </mxGeometry>
        </mxCell>
        <mxCell id="EaseoKQZitVmt0d7xpuM-84" value="Spinning" style="shape=table;startSize=30;container=1;collapsible=0;childLayout=tableLayout;fixedRows=1;rowLines=0;fontStyle=0;strokeColor=default;fontSize=16;" vertex="1" parent="1">
          <mxGeometry x="-308.25" y="760" width="119.5" height="110" as="geometry" />
        </mxCell>
        <mxCell id="EaseoKQZitVmt0d7xpuM-85" value="" style="shape=tableRow;horizontal=0;startSize=0;swimlaneHead=0;swimlaneBody=0;top=0;left=0;bottom=0;right=0;collapsible=0;dropTarget=0;fillColor=none;points=[[0,0.5],[1,0.5]];portConstraint=eastwest;strokeColor=inherit;fontSize=16;" vertex="1" parent="EaseoKQZitVmt0d7xpuM-84">
          <mxGeometry y="30" width="119.5" height="50" as="geometry" />
        </mxCell>
        <mxCell id="EaseoKQZitVmt0d7xpuM-86" value="&lt;div&gt;VectorAxisOf&lt;/div&gt;&lt;div&gt;Rotation&lt;/div&gt;" style="shape=partialRectangle;html=1;whiteSpace=wrap;connectable=0;fillColor=none;top=0;left=0;bottom=0;right=0;align=left;spacingLeft=6;overflow=hidden;strokeColor=inherit;fontSize=16;" vertex="1" parent="EaseoKQZitVmt0d7xpuM-85">
          <mxGeometry width="120" height="50" as="geometry">
            <mxRectangle width="120" height="50" as="alternateBounds" />
          </mxGeometry>
        </mxCell>
        <mxCell id="EaseoKQZitVmt0d7xpuM-87" style="shape=tableRow;horizontal=0;startSize=0;swimlaneHead=0;swimlaneBody=0;top=0;left=0;bottom=0;right=0;collapsible=0;dropTarget=0;fillColor=none;points=[[0,0.5],[1,0.5]];portConstraint=eastwest;strokeColor=inherit;fontSize=16;" vertex="1" parent="EaseoKQZitVmt0d7xpuM-84">
          <mxGeometry y="80" width="119.5" height="30" as="geometry" />
        </mxCell>
        <mxCell id="EaseoKQZitVmt0d7xpuM-88" value="RotationSpeed" style="shape=partialRectangle;html=1;whiteSpace=wrap;connectable=0;fillColor=none;top=0;left=0;bottom=0;right=0;align=left;spacingLeft=6;overflow=hidden;strokeColor=inherit;fontSize=16;" vertex="1" parent="EaseoKQZitVmt0d7xpuM-87">
          <mxGeometry width="120" height="30" as="geometry">
            <mxRectangle width="120" height="30" as="alternateBounds" />
          </mxGeometry>
        </mxCell>
        <mxCell id="EaseoKQZitVmt0d7xpuM-89" value="" style="edgeStyle=elbowEdgeStyle;elbow=horizontal;endArrow=classic;html=1;curved=0;rounded=0;endSize=8;startSize=8;entryX=0.029;entryY=0.182;entryDx=0;entryDy=0;entryPerimeter=0;exitX=0;exitY=0.25;exitDx=0;exitDy=0;" edge="1" parent="1" source="EaseoKQZitVmt0d7xpuM-37" target="EaseoKQZitVmt0d7xpuM-84">
          <mxGeometry width="50" height="50" relative="1" as="geometry">
            <mxPoint x="-470" y="210" as="sourcePoint" />
            <mxPoint x="-436.9875000000002" y="463.03999999999996" as="targetPoint" />
            <Array as="points">
              <mxPoint x="-490" y="300" />
            </Array>
          </mxGeometry>
        </mxCell>
        <mxCell id="EaseoKQZitVmt0d7xpuM-91" value="Lava" style="shape=table;startSize=30;container=1;collapsible=0;childLayout=tableLayout;fixedRows=1;rowLines=0;fontStyle=0;strokeColor=default;fontSize=16;" vertex="1" parent="1">
          <mxGeometry x="50" y="600" width="140" height="210" as="geometry" />
        </mxCell>
        <mxCell id="EaseoKQZitVmt0d7xpuM-92" value="" style="shape=tableRow;horizontal=0;startSize=0;swimlaneHead=0;swimlaneBody=0;top=0;left=0;bottom=0;right=0;collapsible=0;dropTarget=0;fillColor=none;points=[[0,0.5],[1,0.5]];portConstraint=eastwest;strokeColor=inherit;fontSize=16;" vertex="1" parent="EaseoKQZitVmt0d7xpuM-91">
          <mxGeometry y="30" width="140" height="30" as="geometry" />
        </mxCell>
        <mxCell id="EaseoKQZitVmt0d7xpuM-94" value="Enemy" style="shape=partialRectangle;html=1;whiteSpace=wrap;connectable=0;fillColor=none;top=0;left=0;bottom=0;right=0;align=left;spacingLeft=6;overflow=hidden;strokeColor=inherit;fontSize=16;" vertex="1" parent="EaseoKQZitVmt0d7xpuM-92">
          <mxGeometry width="140" height="30" as="geometry">
            <mxRectangle width="140" height="30" as="alternateBounds" />
          </mxGeometry>
        </mxCell>
        <mxCell id="EaseoKQZitVmt0d7xpuM-95" value="" style="shape=tableRow;horizontal=0;startSize=0;swimlaneHead=0;swimlaneBody=0;top=0;left=0;bottom=0;right=0;collapsible=0;dropTarget=0;fillColor=none;points=[[0,0.5],[1,0.5]];portConstraint=eastwest;strokeColor=inherit;fontSize=16;" vertex="1" parent="EaseoKQZitVmt0d7xpuM-91">
          <mxGeometry y="60" width="140" height="30" as="geometry" />
        </mxCell>
        <mxCell id="EaseoKQZitVmt0d7xpuM-97" value="StaticPosition" style="shape=partialRectangle;html=1;whiteSpace=wrap;connectable=0;fillColor=none;top=0;left=0;bottom=0;right=0;align=left;spacingLeft=6;overflow=hidden;strokeColor=inherit;fontSize=16;" vertex="1" parent="EaseoKQZitVmt0d7xpuM-95">
          <mxGeometry width="140" height="30" as="geometry">
            <mxRectangle width="140" height="30" as="alternateBounds" />
          </mxGeometry>
        </mxCell>
        <mxCell id="EaseoKQZitVmt0d7xpuM-98" value="" style="shape=tableRow;horizontal=0;startSize=0;swimlaneHead=0;swimlaneBody=0;top=0;left=0;bottom=0;right=0;collapsible=0;dropTarget=0;fillColor=none;points=[[0,0.5],[1,0.5]];portConstraint=eastwest;strokeColor=inherit;fontSize=16;" vertex="1" parent="EaseoKQZitVmt0d7xpuM-91">
          <mxGeometry y="90" width="140" height="30" as="geometry" />
        </mxCell>
        <mxCell id="EaseoKQZitVmt0d7xpuM-100" value="Hitting" style="shape=partialRectangle;html=1;whiteSpace=wrap;connectable=0;fillColor=none;top=0;left=0;bottom=0;right=0;align=left;spacingLeft=6;overflow=hidden;strokeColor=inherit;fontSize=16;" vertex="1" parent="EaseoKQZitVmt0d7xpuM-98">
          <mxGeometry width="140" height="30" as="geometry">
            <mxRectangle width="140" height="30" as="alternateBounds" />
          </mxGeometry>
        </mxCell>
        <mxCell id="EaseoKQZitVmt0d7xpuM-123" style="shape=tableRow;horizontal=0;startSize=0;swimlaneHead=0;swimlaneBody=0;top=0;left=0;bottom=0;right=0;collapsible=0;dropTarget=0;fillColor=none;points=[[0,0.5],[1,0.5]];portConstraint=eastwest;strokeColor=inherit;fontSize=16;" vertex="1" parent="EaseoKQZitVmt0d7xpuM-91">
          <mxGeometry y="120" width="140" height="30" as="geometry" />
        </mxCell>
        <mxCell id="EaseoKQZitVmt0d7xpuM-124" value="Killing" style="shape=partialRectangle;html=1;whiteSpace=wrap;connectable=0;fillColor=none;top=0;left=0;bottom=0;right=0;align=left;spacingLeft=6;overflow=hidden;strokeColor=inherit;fontSize=16;" vertex="1" parent="EaseoKQZitVmt0d7xpuM-123">
          <mxGeometry width="140" height="30" as="geometry">
            <mxRectangle width="140" height="30" as="alternateBounds" />
          </mxGeometry>
        </mxCell>
        <mxCell id="EaseoKQZitVmt0d7xpuM-125" style="shape=tableRow;horizontal=0;startSize=0;swimlaneHead=0;swimlaneBody=0;top=0;left=0;bottom=0;right=0;collapsible=0;dropTarget=0;fillColor=none;points=[[0,0.5],[1,0.5]];portConstraint=eastwest;strokeColor=inherit;fontSize=16;" vertex="1" parent="EaseoKQZitVmt0d7xpuM-91">
          <mxGeometry y="150" width="140" height="30" as="geometry" />
        </mxCell>
        <mxCell id="EaseoKQZitVmt0d7xpuM-126" value="Breaking" style="shape=partialRectangle;html=1;whiteSpace=wrap;connectable=0;fillColor=none;top=0;left=0;bottom=0;right=0;align=left;spacingLeft=6;overflow=hidden;strokeColor=inherit;fontSize=16;" vertex="1" parent="EaseoKQZitVmt0d7xpuM-125">
          <mxGeometry width="140" height="30" as="geometry">
            <mxRectangle width="140" height="30" as="alternateBounds" />
          </mxGeometry>
        </mxCell>
        <mxCell id="EaseoKQZitVmt0d7xpuM-127" style="shape=tableRow;horizontal=0;startSize=0;swimlaneHead=0;swimlaneBody=0;top=0;left=0;bottom=0;right=0;collapsible=0;dropTarget=0;fillColor=none;points=[[0,0.5],[1,0.5]];portConstraint=eastwest;strokeColor=inherit;fontSize=16;" vertex="1" parent="EaseoKQZitVmt0d7xpuM-91">
          <mxGeometry y="180" width="140" height="30" as="geometry" />
        </mxCell>
        <mxCell id="EaseoKQZitVmt0d7xpuM-128" value="Movable" style="shape=partialRectangle;html=1;whiteSpace=wrap;connectable=0;fillColor=none;top=0;left=0;bottom=0;right=0;align=left;spacingLeft=6;overflow=hidden;strokeColor=inherit;fontSize=16;" vertex="1" parent="EaseoKQZitVmt0d7xpuM-127">
          <mxGeometry width="140" height="30" as="geometry">
            <mxRectangle width="140" height="30" as="alternateBounds" />
          </mxGeometry>
        </mxCell>
        <mxCell id="EaseoKQZitVmt0d7xpuM-101" value="" style="edgeStyle=elbowEdgeStyle;elbow=horizontal;endArrow=classic;html=1;curved=0;rounded=0;endSize=8;startSize=8;exitX=1;exitY=0.25;exitDx=0;exitDy=0;entryX=0;entryY=0.25;entryDx=0;entryDy=0;" edge="1" parent="1" source="WEGuKnOYoMUn4FzqH5F0-34" target="EaseoKQZitVmt0d7xpuM-27">
          <mxGeometry width="50" height="50" relative="1" as="geometry">
            <mxPoint x="-540" y="10" as="sourcePoint" />
            <mxPoint x="-490" y="-40" as="targetPoint" />
          </mxGeometry>
        </mxCell>
        <mxCell id="EaseoKQZitVmt0d7xpuM-102" value="" style="edgeStyle=elbowEdgeStyle;elbow=horizontal;endArrow=classic;html=1;curved=0;rounded=0;endSize=8;startSize=8;exitX=1;exitY=0.25;exitDx=0;exitDy=0;entryX=0;entryY=0.25;entryDx=0;entryDy=0;" edge="1" parent="1" source="EaseoKQZitVmt0d7xpuM-27" target="EaseoKQZitVmt0d7xpuM-66">
          <mxGeometry width="50" height="50" relative="1" as="geometry">
            <mxPoint x="-350" y="-40" as="sourcePoint" />
            <mxPoint x="-300" y="-90" as="targetPoint" />
          </mxGeometry>
        </mxCell>
        <mxCell id="EaseoKQZitVmt0d7xpuM-103" value="" style="edgeStyle=elbowEdgeStyle;elbow=horizontal;endArrow=classic;html=1;curved=0;rounded=0;endSize=8;startSize=8;exitX=1;exitY=0.25;exitDx=0;exitDy=0;entryX=0;entryY=0.25;entryDx=0;entryDy=0;" edge="1" parent="1" source="EaseoKQZitVmt0d7xpuM-27" target="EaseoKQZitVmt0d7xpuM-69">
          <mxGeometry width="50" height="50" relative="1" as="geometry">
            <mxPoint x="-550" y="270" as="sourcePoint" />
            <mxPoint x="-500" y="220" as="targetPoint" />
            <Array as="points">
              <mxPoint x="-330" y="80" />
            </Array>
          </mxGeometry>
        </mxCell>
        <mxCell id="EaseoKQZitVmt0d7xpuM-105" value="" style="edgeStyle=elbowEdgeStyle;elbow=horizontal;endArrow=classic;html=1;curved=0;rounded=0;endSize=8;startSize=8;exitX=1;exitY=0.25;exitDx=0;exitDy=0;entryX=0.005;entryY=0.133;entryDx=0;entryDy=0;entryPerimeter=0;" edge="1" parent="1" source="WEGuKnOYoMUn4FzqH5F0-34" target="EaseoKQZitVmt0d7xpuM-37">
          <mxGeometry width="50" height="50" relative="1" as="geometry">
            <mxPoint x="-560" y="230" as="sourcePoint" />
            <mxPoint x="-510" y="180" as="targetPoint" />
          </mxGeometry>
        </mxCell>
        <mxCell id="EaseoKQZitVmt0d7xpuM-106" value="Hitting" style="shape=table;startSize=30;container=1;collapsible=0;childLayout=tableLayout;fixedRows=1;rowLines=0;fontStyle=0;strokeColor=default;fontSize=16;" vertex="1" parent="1">
          <mxGeometry x="-295.25" y="280" width="106.5" height="60" as="geometry" />
        </mxCell>
        <mxCell id="EaseoKQZitVmt0d7xpuM-107" value="" style="shape=tableRow;horizontal=0;startSize=0;swimlaneHead=0;swimlaneBody=0;top=0;left=0;bottom=0;right=0;collapsible=0;dropTarget=0;fillColor=none;points=[[0,0.5],[1,0.5]];portConstraint=eastwest;strokeColor=inherit;fontSize=16;" vertex="1" parent="EaseoKQZitVmt0d7xpuM-106">
          <mxGeometry y="30" width="106.5" height="30" as="geometry" />
        </mxCell>
        <mxCell id="EaseoKQZitVmt0d7xpuM-108" value="Damage" style="shape=partialRectangle;html=1;whiteSpace=wrap;connectable=0;fillColor=none;top=0;left=0;bottom=0;right=0;align=left;spacingLeft=6;overflow=hidden;strokeColor=inherit;fontSize=16;" vertex="1" parent="EaseoKQZitVmt0d7xpuM-107">
          <mxGeometry width="107" height="30" as="geometry">
            <mxRectangle width="107" height="30" as="alternateBounds" />
          </mxGeometry>
        </mxCell>
        <mxCell id="EaseoKQZitVmt0d7xpuM-109" value="" style="edgeStyle=elbowEdgeStyle;elbow=horizontal;endArrow=classic;html=1;curved=0;rounded=0;endSize=8;startSize=8;exitX=-0.026;exitY=0.4;exitDx=0;exitDy=0;exitPerimeter=0;entryX=0;entryY=0.25;entryDx=0;entryDy=0;" edge="1" parent="1" source="EaseoKQZitVmt0d7xpuM-52" target="EaseoKQZitVmt0d7xpuM-106">
          <mxGeometry width="50" height="50" relative="1" as="geometry">
            <mxPoint x="-420" y="300" as="sourcePoint" />
            <mxPoint x="-360" y="300" as="targetPoint" />
            <Array as="points">
              <mxPoint x="-470" y="270" />
            </Array>
          </mxGeometry>
        </mxCell>
        <mxCell id="EaseoKQZitVmt0d7xpuM-110" value="Wet" style="shape=table;startSize=30;container=1;collapsible=0;childLayout=tableLayout;fixedRows=1;rowLines=0;fontStyle=0;strokeColor=default;fontSize=16;" vertex="1" parent="1">
          <mxGeometry x="-295.25" y="430" width="106.5" height="60" as="geometry" />
        </mxCell>
        <mxCell id="EaseoKQZitVmt0d7xpuM-111" value="" style="shape=tableRow;horizontal=0;startSize=0;swimlaneHead=0;swimlaneBody=0;top=0;left=0;bottom=0;right=0;collapsible=0;dropTarget=0;fillColor=none;points=[[0,0.5],[1,0.5]];portConstraint=eastwest;strokeColor=inherit;fontSize=16;" vertex="1" parent="EaseoKQZitVmt0d7xpuM-110">
          <mxGeometry y="30" width="106.5" height="30" as="geometry" />
        </mxCell>
        <mxCell id="EaseoKQZitVmt0d7xpuM-112" value="SliddingCoef" style="shape=partialRectangle;html=1;whiteSpace=wrap;connectable=0;fillColor=none;top=0;left=0;bottom=0;right=0;align=left;spacingLeft=6;overflow=hidden;strokeColor=inherit;fontSize=16;" vertex="1" parent="EaseoKQZitVmt0d7xpuM-111">
          <mxGeometry width="107" height="30" as="geometry">
            <mxRectangle width="107" height="30" as="alternateBounds" />
          </mxGeometry>
        </mxCell>
        <mxCell id="EaseoKQZitVmt0d7xpuM-113" value="" style="edgeStyle=elbowEdgeStyle;elbow=horizontal;endArrow=classic;html=1;curved=0;rounded=0;endSize=8;startSize=8;exitX=0.021;exitY=0.4;exitDx=0;exitDy=0;exitPerimeter=0;entryX=0;entryY=0.25;entryDx=0;entryDy=0;" edge="1" parent="1" source="EaseoKQZitVmt0d7xpuM-52" target="EaseoKQZitVmt0d7xpuM-110">
          <mxGeometry width="50" height="50" relative="1" as="geometry">
            <mxPoint x="-400" y="350" as="sourcePoint" />
            <mxPoint x="-350" y="300" as="targetPoint" />
            <Array as="points">
              <mxPoint x="-470" y="280" />
            </Array>
          </mxGeometry>
        </mxCell>
        <mxCell id="EaseoKQZitVmt0d7xpuM-114" value="Killing" style="shape=table;startSize=30;container=1;collapsible=0;childLayout=tableLayout;fixedRows=1;rowLines=0;fontStyle=0;strokeColor=default;fontSize=16;" vertex="1" parent="1">
          <mxGeometry x="-295.25" y="350" width="106.5" height="60" as="geometry" />
        </mxCell>
        <mxCell id="EaseoKQZitVmt0d7xpuM-115" value="" style="shape=tableRow;horizontal=0;startSize=0;swimlaneHead=0;swimlaneBody=0;top=0;left=0;bottom=0;right=0;collapsible=0;dropTarget=0;fillColor=none;points=[[0,0.5],[1,0.5]];portConstraint=eastwest;strokeColor=inherit;fontSize=16;" vertex="1" parent="EaseoKQZitVmt0d7xpuM-114">
          <mxGeometry y="30" width="106.5" height="30" as="geometry" />
        </mxCell>
        <mxCell id="EaseoKQZitVmt0d7xpuM-116" value="Damage: HP" style="shape=partialRectangle;html=1;whiteSpace=wrap;connectable=0;fillColor=none;top=0;left=0;bottom=0;right=0;align=left;spacingLeft=6;overflow=hidden;strokeColor=inherit;fontSize=16;" vertex="1" parent="EaseoKQZitVmt0d7xpuM-115">
          <mxGeometry width="107" height="30" as="geometry">
            <mxRectangle width="107" height="30" as="alternateBounds" />
          </mxGeometry>
        </mxCell>
        <mxCell id="EaseoKQZitVmt0d7xpuM-117" value="" style="edgeStyle=elbowEdgeStyle;elbow=horizontal;endArrow=classic;html=1;curved=0;rounded=0;endSize=8;startSize=8;entryX=0;entryY=0.25;entryDx=0;entryDy=0;exitX=-0.026;exitY=0.383;exitDx=0;exitDy=0;exitPerimeter=0;" edge="1" parent="1" source="EaseoKQZitVmt0d7xpuM-106" target="EaseoKQZitVmt0d7xpuM-114">
          <mxGeometry width="50" height="50" relative="1" as="geometry">
            <mxPoint x="-420" y="390" as="sourcePoint" />
            <mxPoint x="-370" y="340" as="targetPoint" />
            <Array as="points">
              <mxPoint x="-450" y="340" />
            </Array>
          </mxGeometry>
        </mxCell>
        <mxCell id="EaseoKQZitVmt0d7xpuM-119" value="Breaking" style="shape=table;startSize=30;container=1;collapsible=0;childLayout=tableLayout;fixedRows=1;rowLines=0;fontStyle=0;strokeColor=default;fontSize=16;" vertex="1" parent="1">
          <mxGeometry x="-310" y="510" width="121.25" height="60" as="geometry" />
        </mxCell>
        <mxCell id="EaseoKQZitVmt0d7xpuM-120" value="" style="shape=tableRow;horizontal=0;startSize=0;swimlaneHead=0;swimlaneBody=0;top=0;left=0;bottom=0;right=0;collapsible=0;dropTarget=0;fillColor=none;points=[[0,0.5],[1,0.5]];portConstraint=eastwest;strokeColor=inherit;fontSize=16;" vertex="1" parent="EaseoKQZitVmt0d7xpuM-119">
          <mxGeometry y="30" width="121.25" height="30" as="geometry" />
        </mxCell>
        <mxCell id="EaseoKQZitVmt0d7xpuM-121" value="StandableTime" style="shape=partialRectangle;html=1;whiteSpace=wrap;connectable=0;fillColor=none;top=0;left=0;bottom=0;right=0;align=left;spacingLeft=6;overflow=hidden;strokeColor=inherit;fontSize=16;" vertex="1" parent="EaseoKQZitVmt0d7xpuM-120">
          <mxGeometry width="121" height="30" as="geometry">
            <mxRectangle width="121" height="30" as="alternateBounds" />
          </mxGeometry>
        </mxCell>
        <mxCell id="EaseoKQZitVmt0d7xpuM-122" value="" style="edgeStyle=elbowEdgeStyle;elbow=horizontal;endArrow=classic;html=1;curved=0;rounded=0;endSize=8;startSize=8;entryX=-0.049;entryY=0.267;entryDx=0;entryDy=0;entryPerimeter=0;exitX=0.001;exitY=0.419;exitDx=0;exitDy=0;exitPerimeter=0;" edge="1" parent="1" source="EaseoKQZitVmt0d7xpuM-52" target="EaseoKQZitVmt0d7xpuM-119">
          <mxGeometry width="50" height="50" relative="1" as="geometry">
            <mxPoint x="-330" y="250" as="sourcePoint" />
            <mxPoint x="-320" y="530" as="targetPoint" />
            <Array as="points">
              <mxPoint x="-470" y="370" />
            </Array>
          </mxGeometry>
        </mxCell>
        <mxCell id="EaseoKQZitVmt0d7xpuM-129" value="" style="edgeStyle=elbowEdgeStyle;elbow=horizontal;endArrow=classic;html=1;curved=0;rounded=0;endSize=8;startSize=8;entryX=1.009;entryY=0.059;entryDx=0;entryDy=0;entryPerimeter=0;exitX=-0.039;exitY=0.139;exitDx=0;exitDy=0;exitPerimeter=0;" edge="1" parent="1" source="WEGuKnOYoMUn4FzqH5F0-13" target="EaseoKQZitVmt0d7xpuM-91">
          <mxGeometry width="50" height="50" relative="1" as="geometry">
            <mxPoint x="290" y="630" as="sourcePoint" />
            <mxPoint x="50" y="420" as="targetPoint" />
          </mxGeometry>
        </mxCell>
        <mxCell id="EaseoKQZitVmt0d7xpuM-131" value="" style="edgeStyle=orthogonalEdgeStyle;fontSize=12;html=1;endArrow=ERoneToMany;startArrow=ERoneToMany;rounded=0;exitX=1;exitY=0.25;exitDx=0;exitDy=0;entryX=0;entryY=0.5;entryDx=0;entryDy=0;" edge="1" parent="1" source="EaseoKQZitVmt0d7xpuM-52" target="EaseoKQZitVmt0d7xpuM-95">
          <mxGeometry width="100" height="100" relative="1" as="geometry">
            <mxPoint x="-50" y="520" as="sourcePoint" />
            <mxPoint x="50" y="420" as="targetPoint" />
            <Array as="points">
              <mxPoint x="-120" y="225" />
              <mxPoint x="-120" y="675" />
            </Array>
          </mxGeometry>
        </mxCell>
        <mxCell id="EaseoKQZitVmt0d7xpuM-132" value="" style="edgeStyle=orthogonalEdgeStyle;fontSize=12;html=1;endArrow=ERoneToMany;startArrow=ERoneToMany;rounded=0;exitX=1;exitY=0.25;exitDx=0;exitDy=0;entryX=0;entryY=0.5;entryDx=0;entryDy=0;" edge="1" parent="1" source="EaseoKQZitVmt0d7xpuM-106" target="EaseoKQZitVmt0d7xpuM-98">
          <mxGeometry width="100" height="100" relative="1" as="geometry">
            <mxPoint x="30" y="470" as="sourcePoint" />
            <mxPoint x="130" y="370" as="targetPoint" />
            <Array as="points">
              <mxPoint x="-130" y="295" />
              <mxPoint x="-130" y="705" />
            </Array>
          </mxGeometry>
        </mxCell>
        <mxCell id="EaseoKQZitVmt0d7xpuM-133" value="" style="edgeStyle=orthogonalEdgeStyle;fontSize=12;html=1;endArrow=ERoneToMany;startArrow=ERoneToMany;rounded=0;exitX=1;exitY=0.25;exitDx=0;exitDy=0;entryX=0;entryY=0.5;entryDx=0;entryDy=0;" edge="1" parent="1" source="EaseoKQZitVmt0d7xpuM-114" target="EaseoKQZitVmt0d7xpuM-123">
          <mxGeometry width="100" height="100" relative="1" as="geometry">
            <mxPoint x="80" y="450" as="sourcePoint" />
            <mxPoint x="180" y="350" as="targetPoint" />
            <Array as="points">
              <mxPoint x="-140" y="365" />
              <mxPoint x="-140" y="735" />
            </Array>
          </mxGeometry>
        </mxCell>
        <mxCell id="EaseoKQZitVmt0d7xpuM-134" value="" style="edgeStyle=orthogonalEdgeStyle;fontSize=12;html=1;endArrow=ERoneToMany;startArrow=ERoneToMany;rounded=0;exitX=1;exitY=0.25;exitDx=0;exitDy=0;entryX=0;entryY=0.5;entryDx=0;entryDy=0;" edge="1" parent="1" source="EaseoKQZitVmt0d7xpuM-119" target="EaseoKQZitVmt0d7xpuM-125">
          <mxGeometry width="100" height="100" relative="1" as="geometry">
            <mxPoint x="160" y="460" as="sourcePoint" />
            <mxPoint x="260" y="360" as="targetPoint" />
            <Array as="points">
              <mxPoint x="-150" y="525" />
              <mxPoint x="-150" y="765" />
            </Array>
          </mxGeometry>
        </mxCell>
        <mxCell id="EaseoKQZitVmt0d7xpuM-135" value="" style="edgeStyle=orthogonalEdgeStyle;fontSize=12;html=1;endArrow=ERoneToMany;startArrow=ERoneToMany;rounded=0;exitX=1;exitY=0.25;exitDx=0;exitDy=0;entryX=0;entryY=0.5;entryDx=0;entryDy=0;" edge="1" parent="1" source="EaseoKQZitVmt0d7xpuM-58" target="EaseoKQZitVmt0d7xpuM-127">
          <mxGeometry width="100" height="100" relative="1" as="geometry">
            <mxPoint x="70" y="480" as="sourcePoint" />
            <mxPoint x="170" y="380" as="targetPoint" />
            <Array as="points">
              <mxPoint x="-160" y="695" />
              <mxPoint x="-160" y="795" />
            </Array>
          </mxGeometry>
        </mxCell>
        <mxCell id="EaseoKQZitVmt0d7xpuM-136" value="" style="edgeStyle=orthogonalEdgeStyle;fontSize=12;html=1;endArrow=ERoneToMany;startArrow=ERoneToMany;rounded=0;exitX=0;exitY=0.25;exitDx=0;exitDy=0;entryX=0;entryY=0.5;entryDx=0;entryDy=0;" edge="1" parent="1" source="xUy-coRWp40PhXiS_MEN-20" target="EaseoKQZitVmt0d7xpuM-92">
          <mxGeometry width="100" height="100" relative="1" as="geometry">
            <mxPoint x="-20" y="490" as="sourcePoint" />
            <mxPoint x="80" y="390" as="targetPoint" />
            <Array as="points">
              <mxPoint x="-110" y="100" />
              <mxPoint x="-110" y="645" />
            </Array>
          </mxGeometry>
        </mxCell>
        <mxCell id="EaseoKQZitVmt0d7xpuM-137" value="5.56mm" style="shape=table;startSize=30;container=1;collapsible=0;childLayout=tableLayout;fixedRows=1;rowLines=0;fontStyle=0;strokeColor=default;fontSize=16;" vertex="1" parent="1">
          <mxGeometry x="94.5" y="180" width="100" height="60" as="geometry" />
        </mxCell>
        <mxCell id="EaseoKQZitVmt0d7xpuM-138" value="" style="shape=tableRow;horizontal=0;startSize=0;swimlaneHead=0;swimlaneBody=0;top=0;left=0;bottom=0;right=0;collapsible=0;dropTarget=0;fillColor=none;points=[[0,0.5],[1,0.5]];portConstraint=eastwest;strokeColor=inherit;fontSize=16;" vertex="1" parent="EaseoKQZitVmt0d7xpuM-137">
          <mxGeometry y="30" width="100" height="30" as="geometry" />
        </mxCell>
        <mxCell id="EaseoKQZitVmt0d7xpuM-139" value="Damage: 5" style="shape=partialRectangle;html=1;whiteSpace=wrap;connectable=0;fillColor=none;top=0;left=0;bottom=0;right=0;align=left;spacingLeft=6;overflow=hidden;strokeColor=inherit;fontSize=16;" vertex="1" parent="EaseoKQZitVmt0d7xpuM-138">
          <mxGeometry width="100" height="30" as="geometry">
            <mxRectangle width="100" height="30" as="alternateBounds" />
          </mxGeometry>
        </mxCell>
        <mxCell id="EaseoKQZitVmt0d7xpuM-140" value="" style="edgeStyle=elbowEdgeStyle;elbow=horizontal;endArrow=classic;html=1;curved=0;rounded=0;endSize=8;startSize=8;exitX=0;exitY=0.25;exitDx=0;exitDy=0;entryX=0;entryY=0.25;entryDx=0;entryDy=0;" edge="1" parent="1" source="xUy-coRWp40PhXiS_MEN-49" target="EaseoKQZitVmt0d7xpuM-137">
          <mxGeometry width="50" height="50" relative="1" as="geometry">
            <mxPoint x="140" y="350" as="sourcePoint" />
            <mxPoint x="190" y="300" as="targetPoint" />
            <Array as="points">
              <mxPoint x="80" y="140" />
            </Array>
          </mxGeometry>
        </mxCell>
        <mxCell id="EaseoKQZitVmt0d7xpuM-141" value="Rifle" style="shape=table;startSize=30;container=1;collapsible=0;childLayout=tableLayout;fixedRows=1;rowLines=0;fontStyle=0;strokeColor=default;fontSize=16;" vertex="1" parent="1">
          <mxGeometry x="263" y="270" width="157" height="180" as="geometry" />
        </mxCell>
        <mxCell id="EaseoKQZitVmt0d7xpuM-142" value="" style="shape=tableRow;horizontal=0;startSize=0;swimlaneHead=0;swimlaneBody=0;top=0;left=0;bottom=0;right=0;collapsible=0;dropTarget=0;fillColor=none;points=[[0,0.5],[1,0.5]];portConstraint=eastwest;strokeColor=inherit;fontSize=16;" vertex="1" parent="EaseoKQZitVmt0d7xpuM-141">
          <mxGeometry y="30" width="157" height="30" as="geometry" />
        </mxCell>
        <mxCell id="EaseoKQZitVmt0d7xpuM-143" value="AmountOfEnergy: 1" style="shape=partialRectangle;html=1;whiteSpace=wrap;connectable=0;fillColor=none;top=0;left=0;bottom=0;right=0;align=left;spacingLeft=6;overflow=hidden;strokeColor=inherit;fontSize=16;" vertex="1" parent="EaseoKQZitVmt0d7xpuM-142">
          <mxGeometry width="157" height="30" as="geometry">
            <mxRectangle width="157" height="30" as="alternateBounds" />
          </mxGeometry>
        </mxCell>
        <mxCell id="EaseoKQZitVmt0d7xpuM-144" style="shape=tableRow;horizontal=0;startSize=0;swimlaneHead=0;swimlaneBody=0;top=0;left=0;bottom=0;right=0;collapsible=0;dropTarget=0;fillColor=none;points=[[0,0.5],[1,0.5]];portConstraint=eastwest;strokeColor=inherit;fontSize=16;" vertex="1" parent="EaseoKQZitVmt0d7xpuM-141">
          <mxGeometry y="60" width="157" height="30" as="geometry" />
        </mxCell>
        <mxCell id="EaseoKQZitVmt0d7xpuM-145" value="Skeletal Mesh" style="shape=partialRectangle;html=1;whiteSpace=wrap;connectable=0;fillColor=none;top=0;left=0;bottom=0;right=0;align=left;spacingLeft=6;overflow=hidden;strokeColor=inherit;fontSize=16;" vertex="1" parent="EaseoKQZitVmt0d7xpuM-144">
          <mxGeometry width="157" height="30" as="geometry">
            <mxRectangle width="157" height="30" as="alternateBounds" />
          </mxGeometry>
        </mxCell>
        <mxCell id="EaseoKQZitVmt0d7xpuM-146" style="shape=tableRow;horizontal=0;startSize=0;swimlaneHead=0;swimlaneBody=0;top=0;left=0;bottom=0;right=0;collapsible=0;dropTarget=0;fillColor=none;points=[[0,0.5],[1,0.5]];portConstraint=eastwest;strokeColor=inherit;fontSize=16;" vertex="1" parent="EaseoKQZitVmt0d7xpuM-141">
          <mxGeometry y="90" width="157" height="30" as="geometry" />
        </mxCell>
        <mxCell id="EaseoKQZitVmt0d7xpuM-147" value="Bullet: 5.56mm" style="shape=partialRectangle;html=1;whiteSpace=wrap;connectable=0;fillColor=none;top=0;left=0;bottom=0;right=0;align=left;spacingLeft=6;overflow=hidden;strokeColor=inherit;fontSize=16;" vertex="1" parent="EaseoKQZitVmt0d7xpuM-146">
          <mxGeometry width="157" height="30" as="geometry">
            <mxRectangle width="157" height="30" as="alternateBounds" />
          </mxGeometry>
        </mxCell>
        <mxCell id="EaseoKQZitVmt0d7xpuM-151" style="shape=tableRow;horizontal=0;startSize=0;swimlaneHead=0;swimlaneBody=0;top=0;left=0;bottom=0;right=0;collapsible=0;dropTarget=0;fillColor=none;points=[[0,0.5],[1,0.5]];portConstraint=eastwest;strokeColor=inherit;fontSize=16;" vertex="1" parent="EaseoKQZitVmt0d7xpuM-141">
          <mxGeometry y="120" width="157" height="30" as="geometry" />
        </mxCell>
        <mxCell id="EaseoKQZitVmt0d7xpuM-152" value="SpeedOfBullet: 10" style="shape=partialRectangle;html=1;whiteSpace=wrap;connectable=0;fillColor=none;top=0;left=0;bottom=0;right=0;align=left;spacingLeft=6;overflow=hidden;strokeColor=inherit;fontSize=16;" vertex="1" parent="EaseoKQZitVmt0d7xpuM-151">
          <mxGeometry width="157" height="30" as="geometry">
            <mxRectangle width="157" height="30" as="alternateBounds" />
          </mxGeometry>
        </mxCell>
        <mxCell id="EaseoKQZitVmt0d7xpuM-153" style="shape=tableRow;horizontal=0;startSize=0;swimlaneHead=0;swimlaneBody=0;top=0;left=0;bottom=0;right=0;collapsible=0;dropTarget=0;fillColor=none;points=[[0,0.5],[1,0.5]];portConstraint=eastwest;strokeColor=inherit;fontSize=16;" vertex="1" parent="EaseoKQZitVmt0d7xpuM-141">
          <mxGeometry y="150" width="157" height="30" as="geometry" />
        </mxCell>
        <mxCell id="EaseoKQZitVmt0d7xpuM-154" value="ShotPerTick: 0.5" style="shape=partialRectangle;html=1;whiteSpace=wrap;connectable=0;fillColor=none;top=0;left=0;bottom=0;right=0;align=left;spacingLeft=6;overflow=hidden;strokeColor=inherit;fontSize=16;" vertex="1" parent="EaseoKQZitVmt0d7xpuM-153">
          <mxGeometry width="157" height="30" as="geometry">
            <mxRectangle width="157" height="30" as="alternateBounds" />
          </mxGeometry>
        </mxCell>
        <mxCell id="EaseoKQZitVmt0d7xpuM-148" value="" style="edgeStyle=orthogonalEdgeStyle;fontSize=12;html=1;endArrow=ERzeroToMany;startArrow=ERmandOne;rounded=0;entryX=1;entryY=0.25;entryDx=0;entryDy=0;exitX=0;exitY=0.5;exitDx=0;exitDy=0;" edge="1" parent="1" source="EaseoKQZitVmt0d7xpuM-146" target="EaseoKQZitVmt0d7xpuM-137">
          <mxGeometry width="100" height="100" relative="1" as="geometry">
            <mxPoint x="50" y="430" as="sourcePoint" />
            <mxPoint x="150" y="330" as="targetPoint" />
            <Array as="points">
              <mxPoint x="210" y="375" />
              <mxPoint x="210" y="195" />
            </Array>
          </mxGeometry>
        </mxCell>
        <mxCell id="EaseoKQZitVmt0d7xpuM-150" value="" style="edgeStyle=elbowEdgeStyle;elbow=horizontal;endArrow=classic;html=1;curved=0;rounded=0;endSize=8;startSize=8;exitX=0.988;exitY=0.109;exitDx=0;exitDy=0;exitPerimeter=0;entryX=0.993;entryY=0.138;entryDx=0;entryDy=0;entryPerimeter=0;" edge="1" parent="1" source="xUy-coRWp40PhXiS_MEN-36" target="EaseoKQZitVmt0d7xpuM-141">
          <mxGeometry width="50" height="50" relative="1" as="geometry">
            <mxPoint x="520" y="350" as="sourcePoint" />
            <mxPoint x="570" y="300" as="targetPoint" />
            <Array as="points">
              <mxPoint x="440" y="210" />
            </Array>
          </mxGeometry>
        </mxCell>
        <mxCell id="EaseoKQZitVmt0d7xpuM-155" value="Turel" style="shape=table;startSize=30;container=1;collapsible=0;childLayout=tableLayout;fixedRows=1;rowLines=0;fontStyle=0;strokeColor=default;fontSize=16;" vertex="1" parent="1">
          <mxGeometry x="-90" y="220" width="140" height="150" as="geometry" />
        </mxCell>
        <mxCell id="EaseoKQZitVmt0d7xpuM-156" value="" style="shape=tableRow;horizontal=0;startSize=0;swimlaneHead=0;swimlaneBody=0;top=0;left=0;bottom=0;right=0;collapsible=0;dropTarget=0;fillColor=none;points=[[0,0.5],[1,0.5]];portConstraint=eastwest;strokeColor=inherit;fontSize=16;" vertex="1" parent="EaseoKQZitVmt0d7xpuM-155">
          <mxGeometry y="30" width="140" height="30" as="geometry" />
        </mxCell>
        <mxCell id="EaseoKQZitVmt0d7xpuM-158" value="HP: 10" style="shape=partialRectangle;html=1;whiteSpace=wrap;connectable=0;fillColor=none;top=0;left=0;bottom=0;right=0;align=left;spacingLeft=6;overflow=hidden;strokeColor=inherit;fontSize=16;" vertex="1" parent="EaseoKQZitVmt0d7xpuM-156">
          <mxGeometry width="140" height="30" as="geometry">
            <mxRectangle width="140" height="30" as="alternateBounds" />
          </mxGeometry>
        </mxCell>
        <mxCell id="EaseoKQZitVmt0d7xpuM-159" value="" style="shape=tableRow;horizontal=0;startSize=0;swimlaneHead=0;swimlaneBody=0;top=0;left=0;bottom=0;right=0;collapsible=0;dropTarget=0;fillColor=none;points=[[0,0.5],[1,0.5]];portConstraint=eastwest;strokeColor=inherit;fontSize=16;" vertex="1" parent="EaseoKQZitVmt0d7xpuM-155">
          <mxGeometry y="60" width="140" height="30" as="geometry" />
        </mxCell>
        <mxCell id="EaseoKQZitVmt0d7xpuM-161" value="Gun: Rifle" style="shape=partialRectangle;html=1;whiteSpace=wrap;connectable=0;fillColor=none;top=0;left=0;bottom=0;right=0;align=left;spacingLeft=6;overflow=hidden;strokeColor=inherit;fontSize=16;" vertex="1" parent="EaseoKQZitVmt0d7xpuM-159">
          <mxGeometry width="140" height="30" as="geometry">
            <mxRectangle width="140" height="30" as="alternateBounds" />
          </mxGeometry>
        </mxCell>
        <mxCell id="EaseoKQZitVmt0d7xpuM-162" value="" style="shape=tableRow;horizontal=0;startSize=0;swimlaneHead=0;swimlaneBody=0;top=0;left=0;bottom=0;right=0;collapsible=0;dropTarget=0;fillColor=none;points=[[0,0.5],[1,0.5]];portConstraint=eastwest;strokeColor=inherit;fontSize=16;" vertex="1" parent="EaseoKQZitVmt0d7xpuM-155">
          <mxGeometry y="90" width="140" height="30" as="geometry" />
        </mxCell>
        <mxCell id="EaseoKQZitVmt0d7xpuM-164" value="Resistance: 0" style="shape=partialRectangle;html=1;whiteSpace=wrap;connectable=0;fillColor=none;top=0;left=0;bottom=0;right=0;align=left;spacingLeft=6;overflow=hidden;strokeColor=inherit;fontSize=16;" vertex="1" parent="EaseoKQZitVmt0d7xpuM-162">
          <mxGeometry width="140" height="30" as="geometry">
            <mxRectangle width="140" height="30" as="alternateBounds" />
          </mxGeometry>
        </mxCell>
        <mxCell id="EaseoKQZitVmt0d7xpuM-165" style="shape=tableRow;horizontal=0;startSize=0;swimlaneHead=0;swimlaneBody=0;top=0;left=0;bottom=0;right=0;collapsible=0;dropTarget=0;fillColor=none;points=[[0,0.5],[1,0.5]];portConstraint=eastwest;strokeColor=inherit;fontSize=16;" vertex="1" parent="EaseoKQZitVmt0d7xpuM-155">
          <mxGeometry y="120" width="140" height="30" as="geometry" />
        </mxCell>
        <mxCell id="EaseoKQZitVmt0d7xpuM-166" value="Position" style="shape=partialRectangle;html=1;whiteSpace=wrap;connectable=0;fillColor=none;top=0;left=0;bottom=0;right=0;align=left;spacingLeft=6;overflow=hidden;strokeColor=inherit;fontSize=16;" vertex="1" parent="EaseoKQZitVmt0d7xpuM-165">
          <mxGeometry width="140" height="30" as="geometry">
            <mxRectangle width="140" height="30" as="alternateBounds" />
          </mxGeometry>
        </mxCell>
        <mxCell id="EaseoKQZitVmt0d7xpuM-167" value="" style="edgeStyle=elbowEdgeStyle;elbow=horizontal;endArrow=classic;html=1;curved=0;rounded=0;endSize=8;startSize=8;exitX=1;exitY=0.25;exitDx=0;exitDy=0;entryX=0.988;entryY=0.115;entryDx=0;entryDy=0;entryPerimeter=0;" edge="1" parent="1" source="xUy-coRWp40PhXiS_MEN-20" target="EaseoKQZitVmt0d7xpuM-155">
          <mxGeometry width="50" height="50" relative="1" as="geometry">
            <mxPoint x="90" y="340" as="sourcePoint" />
            <mxPoint x="140" y="290" as="targetPoint" />
            <Array as="points">
              <mxPoint x="70" y="170" />
            </Array>
          </mxGeometry>
        </mxCell>
        <mxCell id="EaseoKQZitVmt0d7xpuM-168" value="" style="edgeStyle=entityRelationEdgeStyle;fontSize=12;html=1;endArrow=ERmandOne;startArrow=ERmandOne;rounded=0;exitX=1;exitY=0.5;exitDx=0;exitDy=0;entryX=-0.003;entryY=0.092;entryDx=0;entryDy=0;entryPerimeter=0;" edge="1" parent="1" source="EaseoKQZitVmt0d7xpuM-159" target="EaseoKQZitVmt0d7xpuM-141">
          <mxGeometry width="100" height="100" relative="1" as="geometry">
            <mxPoint x="30" y="500" as="sourcePoint" />
            <mxPoint x="130" y="400" as="targetPoint" />
          </mxGeometry>
        </mxCell>
      </root>
    </mxGraphModel>
  </diagram>
</mxfile>
